<svg width="367" height="129" viewBox="0 0 367 129" fill="none" xmlns="http://www.w3.org/2000/svg">
<rect x="9" y="22" width="358" height="91" rx="9" fill="url(#paint0_radial_64_2430)"/>
<g filter="url(#filter0_f_64_2430)">
<circle cx="60" cy="68" r="31.5" stroke="white" stroke-opacity="0.3" stroke-width="9"/>
</g>
<g filter="url(#filter1_f_64_2430)">
<circle cx="177.248" cy="66.7523" r="15.8945" stroke="white" stroke-opacity="0.3" stroke-width="4.54128"/>
</g>
<g filter="url(#filter2_f_64_2430)">
<circle cx="60" cy="69" r="49.5" stroke="white" stroke-opacity="0.3" stroke-width="7"/>
</g>
<g filter="url(#filter3_f_64_2430)">
<circle cx="177.5" cy="66.5" r="25.2294" stroke="white" stroke-opacity="0.3" stroke-width="4.54128"/>
</g>
<path d="M133.468 16.0938L131.124 7.38636H132.428L134.771 16.0938H133.468ZM143.341 7.28H147.911V8.41H143.341V7.28ZM147.481 7.28H148.711C148.711 7.28 148.711 7.73 148.701 7.89C148.601 12.91 148.501 14.67 148.121 15.21C147.861 15.61 147.601 15.74 147.231 15.82C146.861 15.89 146.311 15.88 145.771 15.86C145.751 15.52 145.601 14.98 145.391 14.62C145.921 14.67 146.381 14.67 146.621 14.67C146.791 14.67 146.891 14.62 147.001 14.47C147.301 14.12 147.401 12.3 147.481 7.57V7.28ZM144.801 7.8H146.031C145.961 10.9 145.821 14.09 143.421 15.91C143.211 15.59 142.841 15.19 142.521 14.97C144.751 13.4 144.751 10.56 144.801 7.8ZM140.961 11.67L142.141 10.26V15.9H140.961V11.67ZM139.661 8.29H142.651V9.36H139.661V8.29ZM140.961 6.52H142.141V8.87H140.961V6.52ZM142.021 10.91C142.351 11.17 143.441 12.21 143.701 12.47L142.991 13.39C142.631 12.86 141.811 11.89 141.391 11.46L142.021 10.91ZM142.321 8.29H142.551L142.761 8.23L143.431 8.68C142.711 10.61 141.311 12.49 140.001 13.52C139.891 13.22 139.571 12.63 139.381 12.42C140.591 11.58 141.811 9.97 142.321 8.52V8.29ZM143.191 10.19L143.961 10.83C143.531 11.23 143.171 11.69 142.861 11.98L142.311 11.5C142.591 11.16 142.991 10.58 143.191 10.19ZM157.201 7.16C157.111 7.44 157.021 7.93 156.961 8.17C156.541 9.94 155.891 12.02 154.931 13.23C154.011 14.39 153.371 14.91 152.451 14.91C151.621 14.91 150.861 14.21 150.861 12.92C150.861 11.58 151.631 10.15 152.801 9.4C153.871 8.71 154.881 8.46 155.951 8.46C158.011 8.46 159.491 9.85 159.491 11.93C159.491 14.05 157.981 15.27 155.891 15.59L155.131 14.43C157.331 14.24 158.191 13.12 158.191 11.87C158.191 10.51 157.261 9.57 155.821 9.57C154.781 9.57 153.971 9.95 153.271 10.46C152.491 11.01 152.031 11.99 152.031 12.81C152.031 13.3 152.241 13.61 152.591 13.61C153.111 13.61 153.661 12.97 154.181 12.18C154.951 11.05 155.531 9.21 155.741 7.98C155.791 7.69 155.821 7.27 155.811 7.03L157.201 7.16ZM152.981 7.49C153.031 7.83 153.111 8.16 153.191 8.45C153.501 9.57 154.031 11.1 154.491 11.82C154.831 12.36 155.301 12.99 155.771 13.43L154.751 14.24C154.361 13.8 154.061 13.42 153.741 12.91C153.131 12.02 152.531 10.42 152.071 8.94C151.961 8.59 151.841 8.27 151.661 7.91L152.981 7.49ZM161.921 8.13C162.311 8.12 162.711 8.1 162.901 8.08C163.741 8 165.381 7.86 167.221 7.7C168.251 7.61 169.341 7.55 170.051 7.52L170.061 8.81C169.521 8.81 168.661 8.82 168.121 8.94C166.921 9.26 166.011 10.56 166.011 11.74C166.011 13.39 167.551 13.98 169.241 14.07L168.781 15.44C166.681 15.31 164.701 14.18 164.701 12.01C164.701 10.57 165.511 9.44 166.191 8.93C165.251 9.03 163.211 9.24 162.051 9.5L161.921 8.13ZM178.121 8.15C177.981 9.17 177.781 10.34 177.431 11.52C176.831 13.54 175.971 14.78 174.881 14.78C173.761 14.78 172.841 13.55 172.841 11.86C172.841 9.56 174.851 7.58 177.441 7.58C179.911 7.58 181.481 9.3 181.481 11.49C181.481 13.59 180.191 15.08 177.671 15.47L176.911 14.29C177.301 14.24 177.581 14.19 177.851 14.13C179.121 13.82 180.121 12.91 180.121 11.44C180.121 9.87 179.141 8.75 177.411 8.75C175.291 8.75 174.131 10.48 174.131 11.74C174.131 12.75 174.531 13.24 174.911 13.24C175.341 13.24 175.721 12.6 176.141 11.25C176.431 10.31 176.651 9.16 176.751 8.11L178.121 8.15ZM183.671 8.11H192.741V9.26H183.671V8.11ZM187.011 10.56H190.841V11.7H187.011V10.56ZM190.401 10.56H191.641C191.641 10.56 191.631 10.92 191.601 11.08C191.421 13.82 191.211 14.95 190.811 15.39C190.511 15.71 190.191 15.81 189.731 15.86C189.351 15.89 188.681 15.88 188.011 15.86C187.991 15.51 187.811 15.01 187.581 14.68C188.271 14.74 188.981 14.74 189.271 14.74C189.491 14.74 189.631 14.73 189.761 14.62C190.061 14.36 190.251 13.22 190.391 10.75L190.401 10.56ZM186.561 8.79H187.911C187.761 11.47 187.491 14.39 184.351 15.97C184.171 15.65 183.811 15.21 183.491 14.96C186.401 13.61 186.461 11.07 186.561 8.79ZM187.531 6.46H188.771V8.56H187.531V6.46ZM198.111 8.86C198.691 8.92 199.261 8.95 199.871 8.95C201.091 8.95 202.341 8.85 203.381 8.63V9.87C202.331 10.03 201.071 10.11 199.871 10.12C199.281 10.12 198.711 10.1 198.121 10.06L198.111 8.86ZM201.921 7.18C201.891 7.37 201.871 7.61 201.861 7.82C201.841 8.15 201.821 8.84 201.821 9.56C201.821 11.4 201.981 12.7 201.981 13.65C201.981 14.7 201.461 15.46 200.021 15.46C198.631 15.46 197.771 14.89 197.771 13.84C197.771 12.82 198.631 12.12 200.001 12.12C201.881 12.12 203.091 13.06 203.871 13.78L203.191 14.83C202.041 13.76 201.031 13.09 199.901 13.09C199.331 13.09 198.941 13.32 198.941 13.7C198.941 14.11 199.341 14.29 199.881 14.29C200.491 14.29 200.701 13.97 200.701 13.38C200.701 12.69 200.571 11.01 200.571 9.57C200.571 8.81 200.561 8.14 200.551 7.84C200.551 7.68 200.521 7.37 200.491 7.18H201.921ZM197.041 7.28C196.961 7.48 196.841 8 196.801 8.18C196.651 8.85 196.321 11.05 196.321 12.05C196.321 12.24 196.331 12.5 196.361 12.7C196.501 12.35 196.671 12.01 196.811 11.67L197.431 12.16C197.151 12.99 196.821 14 196.711 14.55C196.681 14.69 196.651 14.91 196.661 15.01C196.661 15.12 196.661 15.29 196.671 15.43L195.541 15.51C195.341 14.82 195.141 13.67 195.141 12.32C195.141 10.81 195.441 8.92 195.561 8.15C195.601 7.87 195.641 7.48 195.651 7.17L197.041 7.28ZM207.381 7.74C208.121 7.82 209.051 7.86 210.111 7.86C211.091 7.86 212.241 7.8 213.001 7.72V9.05C212.301 9.11 211.071 9.17 210.111 9.17C209.071 9.17 208.201 9.12 207.381 9.06V7.74ZM208.221 11.97C208.131 12.33 208.051 12.65 208.051 12.99C208.051 13.62 208.671 14.09 210.111 14.09C211.451 14.09 212.731 13.94 213.621 13.69L213.631 15.1C212.751 15.3 211.551 15.43 210.151 15.43C207.871 15.43 206.711 14.67 206.711 13.29C206.711 12.72 206.841 12.23 206.911 11.85L208.221 11.97ZM220.731 7.03C220.631 7.39 220.571 7.73 220.491 8.05C220.331 8.85 220.031 10.32 219.731 11.25C220.541 10.81 221.321 10.63 222.221 10.63C223.831 10.63 224.911 11.48 224.911 12.77C224.911 15.01 222.741 15.83 219.501 15.48L219.151 14.19C221.351 14.54 223.561 14.28 223.561 12.8C223.561 12.21 223.041 11.7 222.061 11.7C220.911 11.7 219.891 12.12 219.301 12.88C219.191 13.02 219.111 13.14 219.021 13.31L217.841 12.9C218.581 11.44 219.141 9.01 219.271 7.98C219.321 7.56 219.331 7.3 219.311 6.97L220.731 7.03ZM217.241 8.2C217.891 8.31 218.691 8.39 219.311 8.39C220.591 8.39 222.491 8.24 224.131 7.89L224.161 9.09C222.891 9.3 220.771 9.54 219.321 9.54C218.561 9.54 217.841 9.5 217.251 9.44L217.241 8.2ZM230.541 6.95C231.491 7.25 233.671 7.64 234.551 7.73L234.251 8.96C233.231 8.82 231.011 8.36 230.231 8.16L230.541 6.95ZM230.611 8.96C230.471 9.52 230.301 10.73 230.231 11.31C231.131 10.65 232.131 10.35 233.181 10.35C234.931 10.35 235.951 11.43 235.951 12.64C235.951 14.47 234.501 15.87 230.351 15.51L229.961 14.2C232.971 14.62 234.551 13.89 234.551 12.61C234.551 11.96 233.941 11.49 233.061 11.49C231.931 11.49 230.921 11.91 230.291 12.67C230.111 12.88 230.001 13.04 229.921 13.24L228.761 12.96C228.961 11.98 229.201 10.02 229.261 8.78L230.611 8.96ZM245.297 7.38636L242.953 16.0938H241.65L243.993 7.38636H245.297Z" fill="#666666"/>
<rect x="33.6143" y="38.0358" width="37.3379" height="65.7379" rx="3.73523" transform="rotate(-13.4426 33.6143 38.0358)" fill="url(#paint1_linear_64_2430)" stroke="black" stroke-width="2.52954"/>
<rect x="40.3788" y="43.3096" width="26.8736" height="37.7264" rx="2.95112" transform="rotate(-13.4572 40.3788 43.3096)" fill="white"/>
<g filter="url(#filter4_d_64_2430)">
<path d="M66.676 84.3407C65.9722 81.5328 67.6778 78.686 70.4857 77.9822C73.2936 77.2784 76.1404 78.984 76.8442 81.7919C77.548 84.5997 75.8424 87.4465 73.0345 88.1504L68.9672 89.1699C68.4057 89.3107 67.8363 88.9695 67.6955 88.408L66.676 84.3407Z" fill="white"/>
<path d="M67.2894 84.1869C66.6705 81.7178 68.1704 79.2145 70.6395 78.5956C73.1085 77.9767 75.6119 79.4766 76.2308 81.9456C76.8497 84.4147 75.3498 86.9181 72.8807 87.537L68.8135 88.5565C68.5907 88.6123 68.3648 88.477 68.3089 88.2542L67.2894 84.1869Z" stroke="#FF3A2F" stroke-width="1.26477"/>
</g>
<g filter="url(#filter5_d_64_2430)">
<path d="M62.76 86.223C62.0562 83.4151 59.2094 81.7095 56.4015 82.4133C53.5936 83.1171 51.888 85.9639 52.5918 88.7718C53.2956 91.5797 56.1424 93.2853 58.9503 92.5815L63.0176 91.562C63.5791 91.4212 63.9203 90.8518 63.7795 90.2903L62.76 86.223Z" fill="white"/>
<path d="M62.1466 86.3768C61.5277 83.9077 59.0244 82.4078 56.5553 83.0267C54.0862 83.6456 52.5863 86.149 53.2052 88.618C53.8241 91.0871 56.3275 92.587 58.7965 91.9681L62.8638 90.9486C63.0866 90.8927 63.222 90.6668 63.1661 90.444L62.1466 86.3768Z" stroke="#0095EF" stroke-width="1.26477"/>
</g>
<path d="M61.4007 87.0021L72.5107 102.687C72.8754 103.202 73.7261 103.661 74.1059 103.826L89.5225 109.412C89.7204 109.484 89.8843 109.627 89.982 109.813L91.4164 112.548C91.5619 112.826 91.8496 113 92.1631 113H111L104.494 103.712C104.442 103.637 104.402 103.554 104.376 103.466L101.04 92.1255C101.011 92.0268 100.966 91.9356 100.903 91.8537C99.619 90.1681 96.3993 85.9392 93.0205 81.4934C90.2903 77.901 87.8526 77.1874 86.4218 77.3438C85.9128 77.3994 85.2858 77.2122 84.9436 76.8314C84.4834 76.3192 83.7186 75.6362 82.5377 74.8847C80.7579 73.7521 78.1283 74.2111 76.6565 74.7004C76.3473 74.8032 76.0032 74.745 75.7621 74.5258L66.8551 66.4285C66.4734 66.0815 65.8647 66.1572 65.6896 66.6424C64.9627 68.6577 65.924 70.9297 66.5857 71.9222C68.3328 74.277 71.9638 79.0778 72.5107 79.4424C73.1944 79.8982 75.929 91.5204 76.1569 92.8877C76.3152 93.8375 75.6832 94.1688 75.2156 94.2396C75.0862 94.2592 74.9565 94.2246 74.8395 94.166L71.613 92.5528C71.4558 92.4742 71.3268 92.3471 71.2433 92.1925C69.2442 88.4915 67.4545 86.9389 65.4463 85.8232C64.1965 85.1289 62.6912 85.4482 61.6754 85.8748C61.2309 86.0615 61.122 86.6087 61.4007 87.0021Z" fill="#FFF2EA"/>
<path d="M76.3849 75.1125C76.5672 75.2949 80.0311 80.4299 81.8542 83.0886M85.2724 77.3914L87.3234 81.4934" stroke="#FFD1B6" stroke-width="0.421589" stroke-linecap="round"/>
<g filter="url(#filter6_d_64_2430)">
<path d="M147.155 64.6378C147.098 64.0649 146.854 63.6198 146.423 63.3026C145.992 62.9853 145.408 62.8267 144.669 62.8267C144.167 62.8267 143.743 62.8977 143.398 63.0398C143.052 63.1771 142.787 63.3688 142.602 63.6151C142.422 63.8613 142.332 64.1406 142.332 64.4531C142.323 64.7135 142.377 64.9408 142.496 65.1349C142.619 65.3291 142.787 65.4972 143 65.6392C143.213 65.7765 143.459 65.8973 143.739 66.0014C144.018 66.1009 144.316 66.1861 144.634 66.2571L145.94 66.5696C146.575 66.7116 147.157 66.901 147.688 67.1378C148.218 67.3745 148.677 67.6657 149.065 68.0114C149.454 68.357 149.754 68.7642 149.967 69.233C150.185 69.7017 150.296 70.2391 150.301 70.8452C150.296 71.7353 150.069 72.5071 149.619 73.1605C149.174 73.8092 148.53 74.3134 147.688 74.6733C146.849 75.0284 145.839 75.206 144.655 75.206C143.481 75.206 142.458 75.026 141.587 74.6662C140.72 74.3063 140.043 73.7737 139.555 73.0682C139.072 72.358 138.819 71.4796 138.795 70.4332H141.771C141.804 70.9209 141.944 71.3281 142.19 71.6548C142.441 71.9768 142.775 72.2206 143.192 72.3864C143.613 72.5473 144.089 72.6278 144.619 72.6278C145.14 72.6278 145.592 72.5521 145.976 72.4006C146.364 72.2491 146.665 72.0384 146.878 71.7685C147.091 71.4986 147.197 71.1884 147.197 70.8381C147.197 70.5114 147.1 70.2367 146.906 70.0142C146.717 69.7917 146.438 69.6023 146.068 69.446C145.704 69.2898 145.256 69.1477 144.726 69.0199L143.142 68.6222C141.916 68.3239 140.947 67.8575 140.237 67.223C139.527 66.5885 139.174 65.7339 139.179 64.6591C139.174 63.7784 139.409 63.009 139.882 62.3509C140.36 61.6927 141.016 61.179 141.849 60.8097C142.683 60.4403 143.63 60.2557 144.69 60.2557C145.77 60.2557 146.712 60.4403 147.517 60.8097C148.327 61.179 148.956 61.6927 149.406 62.3509C149.856 63.009 150.088 63.7713 150.102 64.6378H147.155ZM157.644 75L153.482 60.4545H156.841L159.249 70.5611H159.37L162.026 60.4545H164.902L167.551 70.5824H167.679L170.087 60.4545H173.446L169.284 75H166.287L163.517 65.4901H163.404L160.641 75H157.644ZM180.168 60.4545V75H177.092V60.4545H180.168ZM184.698 75V60.4545H190.436C191.54 60.4545 192.48 60.6652 193.256 61.0866C194.033 61.5033 194.624 62.0833 195.032 62.8267C195.444 63.5653 195.65 64.4176 195.65 65.3835C195.65 66.3494 195.441 67.2017 195.025 67.9403C194.608 68.679 194.004 69.2543 193.213 69.6662C192.427 70.0781 191.476 70.2841 190.358 70.2841H186.701V67.8196H189.861C190.453 67.8196 190.941 67.7178 191.324 67.5142C191.712 67.3059 192.001 67.0194 192.191 66.6548C192.385 66.2855 192.482 65.8617 192.482 65.3835C192.482 64.9006 192.385 64.4792 192.191 64.1193C192.001 63.7547 191.712 63.473 191.324 63.2741C190.936 63.0705 190.444 62.9688 189.847 62.9688H187.773V75H184.698ZM199.647 75V60.4545H209.448V62.9901H202.722V66.456H208.944V68.9915H202.722V72.4645H209.477V75H199.647ZM214.009 61.3C214.789 61.28 215.589 61.24 215.969 61.2C217.629 61.04 220.929 60.76 224.589 60.44C226.669 60.28 228.849 60.14 230.269 60.08L230.289 62.66C229.209 62.66 227.489 62.68 226.409 62.92C224.009 63.56 222.189 66.16 222.189 68.54C222.189 71.82 225.269 73.02 228.649 73.18L227.709 75.92C223.529 75.66 219.569 73.4 219.569 69.06C219.569 66.2 221.189 63.92 222.529 62.9C220.669 63.1 216.569 63.54 214.269 64.04L214.009 61.3ZM227.429 64.62C227.909 65.32 228.629 66.54 229.009 67.34L227.509 68C226.989 66.92 226.569 66.12 225.949 65.24L227.429 64.62ZM229.649 63.7C230.169 64.4 230.929 65.58 231.349 66.36L229.849 67.08C229.309 66 228.849 65.24 228.209 64.36L229.649 63.7ZM241.749 68.4H253.729V70.54H241.749V68.4ZM248.169 61.44H250.309V64.34C250.309 64.82 250.369 64.88 250.729 64.88C250.889 64.88 251.529 64.88 251.709 64.88C252.049 64.88 252.129 64.68 252.169 63.36C252.589 63.68 253.469 64 254.049 64.14C253.829 66.22 253.289 66.78 251.969 66.78C251.609 66.78 250.709 66.78 250.369 66.78C248.529 66.78 248.169 66.16 248.169 64.36V61.44ZM241.929 58.94H253.669V62.94H251.549V60.98H243.969V63.04H241.929V58.94ZM246.489 66.42H248.849V76.78H246.489V66.42ZM244.949 61.46H247.129C246.949 64.52 246.309 66.3 242.669 67.24C242.469 66.72 241.929 65.92 241.509 65.54C244.449 64.88 244.829 63.72 244.949 61.46ZM249.449 69.44C250.449 71.3 252.389 73.18 254.309 74.16C253.809 74.6 253.069 75.44 252.689 76.02C250.689 74.76 248.769 72.46 247.629 70.12L249.449 69.44ZM245.969 69.24L247.829 69.86C246.609 72.54 244.489 74.92 242.029 76.18C241.689 75.64 241.009 74.8 240.509 74.36C242.809 73.38 244.929 71.38 245.969 69.24ZM235.029 68.08C236.629 67.72 239.009 67.08 241.269 66.44L241.589 68.6C239.529 69.24 237.329 69.88 235.569 70.38L235.029 68.08ZM235.349 61.82H241.469V64.02H235.349V61.82ZM237.469 58.04H239.669V74.26C239.669 75.38 239.469 76 238.849 76.36C238.249 76.74 237.389 76.82 236.089 76.82C236.029 76.22 235.749 75.24 235.469 74.58C236.189 74.62 236.889 74.62 237.129 74.6C237.369 74.6 237.469 74.54 237.469 74.26V58.04ZM261.529 59.7C262.169 59.76 262.749 59.78 263.429 59.78C264.289 59.78 268.029 59.6 269.249 59.46C269.909 59.4 270.369 59.3 270.649 59.22L272.229 61.06C271.809 61.32 271.049 61.82 270.649 62.16C269.209 63.3 267.249 64.94 265.889 66.02C268.569 65.74 271.889 65.54 274.309 65.54L274.329 67.9C272.409 67.78 270.389 67.78 269.169 67.94C267.349 68.2 265.809 69.5 265.809 71.14C265.809 72.72 267.049 73.34 268.849 73.54C269.969 73.66 271.149 73.64 271.889 73.58L271.369 76.22C266.229 76.44 263.249 74.88 263.249 71.56C263.249 70.32 263.969 69.08 264.709 68.4C262.869 68.54 260.649 68.84 258.629 69.2L258.409 66.78C259.469 66.66 260.869 66.5 261.909 66.38C263.689 65.2 266.309 62.94 267.549 61.82C266.729 61.88 264.249 62 263.429 62.08C262.949 62.12 262.269 62.2 261.649 62.26L261.529 59.7ZM292.309 68.46C292.309 67.14 291.289 66.08 289.409 66.08C287.209 66.08 285.209 66.74 284.209 67.04C283.629 67.22 282.829 67.52 282.269 67.76L281.509 64.88C282.189 64.84 283.029 64.68 283.689 64.54C285.149 64.22 287.389 63.64 289.749 63.64C292.909 63.64 295.129 65.44 295.129 68.56C295.129 72.86 291.149 75.5 285.589 76.28L284.169 73.78C289.129 73.22 292.309 71.6 292.309 68.46ZM284.449 58.86C286.789 59.36 291.329 59.76 293.429 59.76L293.049 62.22C290.709 62.06 286.369 61.66 284.069 61.26L284.449 58.86ZM309.589 69.86L309.069 63.02L308.969 60.04H312.269L312.169 63.02L311.649 69.86H309.589ZM310.629 75.2C309.589 75.2 308.849 74.46 308.849 73.42C308.849 72.38 309.609 71.66 310.629 71.66C311.629 71.66 312.389 72.38 312.389 73.42C312.389 74.46 311.629 75.2 310.629 75.2Z" fill="white"/>
</g>
<g filter="url(#filter7_d_64_2430)">
<path fill-rule="evenodd" clip-rule="evenodd" d="M330.618 66.8071C330.99 67.1942 330.99 67.8058 330.618 68.1929L324.382 74.6832C323.873 75.2132 323.873 76.0725 324.382 76.6025C324.891 77.1325 325.717 77.1325 326.226 76.6025L333.313 69.2274C334.229 68.2734 334.229 66.7266 333.313 65.7726L326.226 58.3975C325.717 57.8675 324.891 57.8675 324.382 58.3975C323.873 58.9275 323.873 59.7868 324.382 60.3168L330.618 66.8071Z" stroke="white" stroke-linecap="round" shape-rendering="crispEdges"/>
</g>
<g filter="url(#filter8_d_64_2430)">
<path fill-rule="evenodd" clip-rule="evenodd" d="M114.382 68.1929C114.01 67.8058 114.01 67.1942 114.382 66.8071L120.618 60.3168C121.127 59.7868 121.127 58.9275 120.618 58.3975C120.109 57.8675 119.283 57.8675 118.774 58.3975L111.687 65.7726C110.771 66.7266 110.771 68.2734 111.687 69.2274L118.774 76.6025C119.283 77.1325 120.109 77.1325 120.618 76.6025C121.127 76.0725 121.127 75.2132 120.618 74.6832L114.382 68.1929Z" stroke="white" stroke-linecap="round" shape-rendering="crispEdges"/>
</g>
<g filter="url(#filter9_d_64_2430)">
<path fill-rule="evenodd" clip-rule="evenodd" d="M123.382 68.1929C123.01 67.8058 123.01 67.1942 123.382 66.8071L129.618 60.3168C130.127 59.7868 130.127 58.9275 129.618 58.3975C129.109 57.8675 128.283 57.8675 127.774 58.3975L120.687 65.7726C119.771 66.7266 119.771 68.2734 120.687 69.2274L127.774 76.6025C128.283 77.1325 129.109 77.1325 129.618 76.6025C130.127 76.0725 130.127 75.2132 129.618 74.6832L123.382 68.1929Z" stroke="white" stroke-linecap="round" shape-rendering="crispEdges"/>
</g>
<g filter="url(#filter10_d_64_2430)">
<path fill-rule="evenodd" clip-rule="evenodd" d="M339.618 66.8071C339.99 67.1942 339.99 67.8058 339.618 68.1929L333.382 74.6832C332.873 75.2132 332.873 76.0725 333.382 76.6025C333.891 77.1325 334.717 77.1325 335.226 76.6025L342.313 69.2274C343.229 68.2734 343.229 66.7266 342.313 65.7726L335.226 58.3975C334.717 57.8675 333.891 57.8675 333.382 58.3975C332.873 58.9275 332.873 59.7868 333.382 60.3168L339.618 66.8071Z" stroke="white" stroke-linecap="round" shape-rendering="crispEdges"/>
</g>
<g filter="url(#filter11_d_64_2430)">
<path fill-rule="evenodd" clip-rule="evenodd" d="M348.618 66.8071C348.99 67.1942 348.99 67.8058 348.618 68.1929L342.382 74.6832C341.873 75.2132 341.873 76.0725 342.382 76.6025C342.891 77.1325 343.717 77.1325 344.226 76.6025L351.313 69.2274C352.229 68.2734 352.229 66.7266 351.313 65.7726L344.226 58.3975C343.717 57.8675 342.891 57.8675 342.382 58.3975C341.873 58.9275 341.873 59.7868 342.382 60.3168L348.618 66.8071Z" stroke="white" stroke-linecap="round" shape-rendering="crispEdges"/>
</g>
<g filter="url(#filter12_d_64_2430)">
<path fill-rule="evenodd" clip-rule="evenodd" d="M105.382 68.1929C105.01 67.8058 105.01 67.1942 105.382 66.8071L111.618 60.3168C112.127 59.7868 112.127 58.9275 111.618 58.3975C111.109 57.8675 110.283 57.8675 109.774 58.3975L102.687 65.7726C101.771 66.7266 101.771 68.2734 102.687 69.2274L109.774 76.6025C110.283 77.1325 111.109 77.1325 111.618 76.6025C112.127 76.0725 112.127 75.2132 111.618 74.6832L105.382 68.1929Z" stroke="white" stroke-linecap="round" shape-rendering="crispEdges"/>
</g>
<defs>
<filter id="filter0_f_64_2430" x="17" y="25" width="86" height="86" filterUnits="userSpaceOnUse" color-interpolation-filters="sRGB">
<feFlood flood-opacity="0" result="BackgroundImageFix"/>
<feBlend mode="normal" in="SourceGraphic" in2="BackgroundImageFix" result="shape"/>
<feGaussianBlur stdDeviation="3.5" result="effect1_foregroundBlur_64_2430"/>
</filter>
<filter id="filter1_f_64_2430" x="155.55" y="45.055" width="43.3945" height="43.3945" filterUnits="userSpaceOnUse" color-interpolation-filters="sRGB">
<feFlood flood-opacity="0" result="BackgroundImageFix"/>
<feBlend mode="normal" in="SourceGraphic" in2="BackgroundImageFix" result="shape"/>
<feGaussianBlur stdDeviation="1.76605" result="effect1_foregroundBlur_64_2430"/>
</filter>
<filter id="filter2_f_64_2430" x="0" y="9" width="120" height="120" filterUnits="userSpaceOnUse" color-interpolation-filters="sRGB">
<feFlood flood-opacity="0" result="BackgroundImageFix"/>
<feBlend mode="normal" in="SourceGraphic" in2="BackgroundImageFix" result="shape"/>
<feGaussianBlur stdDeviation="3.5" result="effect1_foregroundBlur_64_2430"/>
</filter>
<filter id="filter3_f_64_2430" x="146.468" y="35.4679" width="62.0642" height="62.0642" filterUnits="userSpaceOnUse" color-interpolation-filters="sRGB">
<feFlood flood-opacity="0" result="BackgroundImageFix"/>
<feBlend mode="normal" in="SourceGraphic" in2="BackgroundImageFix" result="shape"/>
<feGaussianBlur stdDeviation="1.76605" result="effect1_foregroundBlur_64_2430"/>
</filter>
<filter id="filter4_d_64_2430" x="64.8311" y="76.1373" width="13.8579" height="14.7506" filterUnits="userSpaceOnUse" color-interpolation-filters="sRGB">
<feFlood flood-opacity="0" result="BackgroundImageFix"/>
<feColorMatrix in="SourceAlpha" type="matrix" values="0 0 0 0 0 0 0 0 0 0 0 0 0 0 0 0 0 0 127 0" result="hardAlpha"/>
<feOffset/>
<feGaussianBlur stdDeviation="0.843178"/>
<feComposite in2="hardAlpha" operator="out"/>
<feColorMatrix type="matrix" values="0 0 0 0 0 0 0 0 0 0 0 0 0 0 0 0 0 0 0.25 0"/>
<feBlend mode="normal" in2="BackgroundImageFix" result="effect1_dropShadow_64_2430"/>
<feBlend mode="normal" in="SourceGraphic" in2="effect1_dropShadow_64_2430" result="shape"/>
</filter>
<filter id="filter5_d_64_2430" x="50.7469" y="80.5684" width="14.7508" height="13.8579" filterUnits="userSpaceOnUse" color-interpolation-filters="sRGB">
<feFlood flood-opacity="0" result="BackgroundImageFix"/>
<feColorMatrix in="SourceAlpha" type="matrix" values="0 0 0 0 0 0 0 0 0 0 0 0 0 0 0 0 0 0 127 0" result="hardAlpha"/>
<feOffset/>
<feGaussianBlur stdDeviation="0.843178"/>
<feComposite in2="hardAlpha" operator="out"/>
<feColorMatrix type="matrix" values="0 0 0 0 0 0 0 0 0 0 0 0 0 0 0 0 0 0 0.25 0"/>
<feBlend mode="normal" in2="BackgroundImageFix" result="effect1_dropShadow_64_2430"/>
<feBlend mode="normal" in="SourceGraphic" in2="effect1_dropShadow_64_2430" result="shape"/>
</filter>
<filter id="filter6_d_64_2430" x="134.795" y="58.04" width="181.594" height="26.7799" filterUnits="userSpaceOnUse" color-interpolation-filters="sRGB">
<feFlood flood-opacity="0" result="BackgroundImageFix"/>
<feColorMatrix in="SourceAlpha" type="matrix" values="0 0 0 0 0 0 0 0 0 0 0 0 0 0 0 0 0 0 127 0" result="hardAlpha"/>
<feOffset dy="4"/>
<feGaussianBlur stdDeviation="2"/>
<feComposite in2="hardAlpha" operator="out"/>
<feColorMatrix type="matrix" values="0 0 0 0 0 0 0 0 0 0 0 0 0 0 0 0 0 0 0.25 0"/>
<feBlend mode="normal" in2="BackgroundImageFix" result="effect1_dropShadow_64_2430"/>
<feBlend mode="normal" in="SourceGraphic" in2="effect1_dropShadow_64_2430" result="shape"/>
</filter>
<filter id="filter7_d_64_2430" x="320.5" y="57.5" width="19" height="28" filterUnits="userSpaceOnUse" color-interpolation-filters="sRGB">
<feFlood flood-opacity="0" result="BackgroundImageFix"/>
<feColorMatrix in="SourceAlpha" type="matrix" values="0 0 0 0 0 0 0 0 0 0 0 0 0 0 0 0 0 0 127 0" result="hardAlpha"/>
<feOffset dx="1" dy="4"/>
<feGaussianBlur stdDeviation="2"/>
<feComposite in2="hardAlpha" operator="out"/>
<feColorMatrix type="matrix" values="0 0 0 0 0 0 0 0 0 0 0 0 0 0 0 0 0 0 0.25 0"/>
<feBlend mode="normal" in2="BackgroundImageFix" result="effect1_dropShadow_64_2430"/>
<feBlend mode="normal" in="SourceGraphic" in2="effect1_dropShadow_64_2430" result="shape"/>
</filter>
<filter id="filter8_d_64_2430" x="104.5" y="57.5" width="19" height="28" filterUnits="userSpaceOnUse" color-interpolation-filters="sRGB">
<feFlood flood-opacity="0" result="BackgroundImageFix"/>
<feColorMatrix in="SourceAlpha" type="matrix" values="0 0 0 0 0 0 0 0 0 0 0 0 0 0 0 0 0 0 127 0" result="hardAlpha"/>
<feOffset dx="-2" dy="4"/>
<feGaussianBlur stdDeviation="2"/>
<feComposite in2="hardAlpha" operator="out"/>
<feColorMatrix type="matrix" values="0 0 0 0 0 0 0 0 0 0 0 0 0 0 0 0 0 0 0.25 0"/>
<feBlend mode="normal" in2="BackgroundImageFix" result="effect1_dropShadow_64_2430"/>
<feBlend mode="normal" in="SourceGraphic" in2="effect1_dropShadow_64_2430" result="shape"/>
</filter>
<filter id="filter9_d_64_2430" x="113.5" y="57.5" width="19" height="28" filterUnits="userSpaceOnUse" color-interpolation-filters="sRGB">
<feFlood flood-opacity="0" result="BackgroundImageFix"/>
<feColorMatrix in="SourceAlpha" type="matrix" values="0 0 0 0 0 0 0 0 0 0 0 0 0 0 0 0 0 0 127 0" result="hardAlpha"/>
<feOffset dx="-2" dy="4"/>
<feGaussianBlur stdDeviation="2"/>
<feComposite in2="hardAlpha" operator="out"/>
<feColorMatrix type="matrix" values="0 0 0 0 0 0 0 0 0 0 0 0 0 0 0 0 0 0 0.25 0"/>
<feBlend mode="normal" in2="BackgroundImageFix" result="effect1_dropShadow_64_2430"/>
<feBlend mode="normal" in="SourceGraphic" in2="effect1_dropShadow_64_2430" result="shape"/>
</filter>
<filter id="filter10_d_64_2430" x="329.5" y="57.5" width="19" height="28" filterUnits="userSpaceOnUse" color-interpolation-filters="sRGB">
<feFlood flood-opacity="0" result="BackgroundImageFix"/>
<feColorMatrix in="SourceAlpha" type="matrix" values="0 0 0 0 0 0 0 0 0 0 0 0 0 0 0 0 0 0 127 0" result="hardAlpha"/>
<feOffset dx="1" dy="4"/>
<feGaussianBlur stdDeviation="2"/>
<feComposite in2="hardAlpha" operator="out"/>
<feColorMatrix type="matrix" values="0 0 0 0 0 0 0 0 0 0 0 0 0 0 0 0 0 0 0.25 0"/>
<feBlend mode="normal" in2="BackgroundImageFix" result="effect1_dropShadow_64_2430"/>
<feBlend mode="normal" in="SourceGraphic" in2="effect1_dropShadow_64_2430" result="shape"/>
</filter>
<filter id="filter11_d_64_2430" x="338.5" y="57.5" width="19" height="28" filterUnits="userSpaceOnUse" color-interpolation-filters="sRGB">
<feFlood flood-opacity="0" result="BackgroundImageFix"/>
<feColorMatrix in="SourceAlpha" type="matrix" values="0 0 0 0 0 0 0 0 0 0 0 0 0 0 0 0 0 0 127 0" result="hardAlpha"/>
<feOffset dx="1" dy="4"/>
<feGaussianBlur stdDeviation="2"/>
<feComposite in2="hardAlpha" operator="out"/>
<feColorMatrix type="matrix" values="0 0 0 0 0 0 0 0 0 0 0 0 0 0 0 0 0 0 0.25 0"/>
<feBlend mode="normal" in2="BackgroundImageFix" result="effect1_dropShadow_64_2430"/>
<feBlend mode="normal" in="SourceGraphic" in2="effect1_dropShadow_64_2430" result="shape"/>
</filter>
<filter id="filter12_d_64_2430" x="95.5" y="57.5" width="19" height="28" filterUnits="userSpaceOnUse" color-interpolation-filters="sRGB">
<feFlood flood-opacity="0" result="BackgroundImageFix"/>
<feColorMatrix in="SourceAlpha" type="matrix" values="0 0 0 0 0 0 0 0 0 0 0 0 0 0 0 0 0 0 127 0" result="hardAlpha"/>
<feOffset dx="-2" dy="4"/>
<feGaussianBlur stdDeviation="2"/>
<feComposite in2="hardAlpha" operator="out"/>
<feColorMatrix type="matrix" values="0 0 0 0 0 0 0 0 0 0 0 0 0 0 0 0 0 0 0.25 0"/>
<feBlend mode="normal" in2="BackgroundImageFix" result="effect1_dropShadow_64_2430"/>
<feBlend mode="normal" in="SourceGraphic" in2="effect1_dropShadow_64_2430" result="shape"/>
</filter>
<radialGradient id="paint0_radial_64_2430" cx="0" cy="0" r="1" gradientUnits="userSpaceOnUse" gradientTransform="translate(9.00002 68) rotate(-0.0800211) scale(358 358)">
<stop offset="0.25" stop-color="#68C6FF"/>
<stop offset="0.5" stop-color="#E3AAFF"/>
<stop offset="0.750471" stop-color="#FF7A7A"/>
</radialGradient>
<linearGradient id="paint1_linear_64_2430" x1="71.9576" y1="69.3153" x2="33.6077" y2="63.3674" gradientUnits="userSpaceOnUse">
<stop stop-color="#FFD3D3"/>
<stop offset="1" stop-color="#C4E9FF"/>
</linearGradient>
</defs>
</svg>
